<mxfile host="app.diagrams.net" modified="2023-04-02T21:16:37.881Z" agent="Mozilla/5.0 (Macintosh; Intel Mac OS X 10_15_7) AppleWebKit/605.1.15 (KHTML, like Gecko) Version/16.3 Safari/605.1.15" version="21.1.2" etag="Ul8jxay4e35h4trL4h5y" type="github">
  <diagram name="PÃ¡gina-1" id="xdzX5dwzv1EQYY_yKXLD">
    <mxGraphModel>
      <root>
        <mxCell id="0" />
        <mxCell id="1" parent="0" />
      </root>
    </mxGraphModel>
  </diagram>
</mxfile>
